<svg width="50" height="50" viewBox="0 0 50 50" fill="none" xmlns="http://www.w3.org/2000/svg">
<path d="M30.3812 38.6137H5.74257C5.54563 38.6137 5.35675 38.5355 5.21749 38.3962C5.07824 38.257 5 38.0681 5 37.8712C5 30.5246 10.8614 24.5444 18.0644 24.5444C25.2673 24.5444 31.1238 30.5246 31.1238 37.8712C31.1238 38.0681 31.0455 38.257 30.9063 38.3962C30.767 38.5355 30.5781 38.6137 30.3812 38.6137ZM6.50495 37.1286H29.6139C29.4593 34.1565 28.1787 31.3549 26.0324 29.2932C23.8861 27.2315 21.0353 26.0646 18.0594 26.0296C15.0835 26.0646 12.2327 27.2315 10.0864 29.2932C7.94012 31.3549 6.65953 34.1565 6.50495 37.1286Z" fill="black"/>
<path d="M18.0692 22.2773C16.4537 22.2773 14.8744 21.7982 13.5311 20.9007C12.1879 20.0032 11.1409 18.7274 10.5227 17.2349C9.90442 15.7423 9.74266 14.0999 10.0578 12.5154C10.373 10.9309 11.151 9.47548 12.2933 8.33312C13.4357 7.19076 14.8911 6.41281 16.4756 6.09763C18.0601 5.78245 19.7025 5.94421 21.1951 6.56245C22.6876 7.18069 23.9634 8.22765 24.8609 9.57092C25.7585 10.9142 26.2375 12.4935 26.2375 14.109C26.2349 16.2746 25.3735 18.3507 23.8422 19.882C22.3109 21.4133 20.2348 22.2747 18.0692 22.2773ZM18.0692 7.42583C16.7474 7.42583 15.4553 7.81779 14.3562 8.55214C13.2572 9.2865 12.4006 10.3303 11.8948 11.5515C11.3889 12.7726 11.2566 14.1164 11.5144 15.4128C11.7723 16.7092 12.4088 17.9001 13.3435 18.8347C14.2781 19.7694 15.469 20.4059 16.7654 20.6637C18.0618 20.9216 19.4055 20.7893 20.6267 20.2834C21.8479 19.7776 22.8917 18.921 23.626 17.822C24.3604 16.7229 24.7524 15.4308 24.7524 14.109C24.7497 12.3373 24.0448 10.6389 22.792 9.38617C21.5393 8.1334 19.8409 7.42844 18.0692 7.42583Z" fill="black"/>
<path d="M18.0593 30.7277C15.4343 30.7295 12.8585 30.0158 10.6088 28.6633C10.4401 28.5603 10.3192 28.3944 10.2728 28.2022C10.2264 28.01 10.2582 27.8073 10.3613 27.6386C10.4643 27.4699 10.6302 27.349 10.8224 27.3026C11.0146 27.2562 11.2173 27.288 11.386 27.3911C13.4048 28.6023 15.7149 29.2421 18.0692 29.2421C20.4235 29.2421 22.7335 28.6023 24.7524 27.3911C24.9211 27.2893 25.1233 27.2587 25.3145 27.3061C25.5058 27.3534 25.6704 27.4748 25.7722 27.6435C25.8739 27.8122 25.9045 28.0145 25.8571 28.2057C25.8098 28.397 25.6884 28.5616 25.5197 28.6633C23.2671 30.0176 20.6876 30.7313 18.0593 30.7277Z" fill="black"/>
<path d="M24.4999 13.0593C23.7077 13.0854 22.9185 12.9506 22.1799 12.663C21.4414 12.3754 20.7688 11.941 20.2029 11.386C18.7177 12.2177 14.5395 14.0593 11.1583 11.4306C11.0813 11.3708 11.0168 11.2964 10.9685 11.2117C10.9202 11.1269 10.8891 11.0335 10.8769 10.9367C10.8647 10.84 10.8717 10.7417 10.8975 10.6477C10.9233 10.5536 10.9673 10.4656 11.0271 10.3885C11.0869 10.3115 11.1613 10.247 11.2461 10.1987C11.3308 10.1504 11.4242 10.1193 11.521 10.1071C11.6178 10.0949 11.716 10.1019 11.8101 10.1277C11.9041 10.1535 11.9922 10.1975 12.0692 10.2573C15.3464 12.8068 19.9059 9.83654 19.9554 9.80684C20.0379 9.75198 20.1305 9.71418 20.2278 9.69568C20.3252 9.67718 20.4252 9.67834 20.5221 9.6991C20.619 9.71986 20.7107 9.7598 20.7919 9.81656C20.8732 9.87332 20.9422 9.94576 20.995 10.0296C21.0346 10.089 22.0593 11.5989 24.4999 11.5989C24.6969 11.5989 24.8857 11.6772 25.025 11.8164C25.1642 11.9557 25.2425 12.1446 25.2425 12.3415C25.2425 12.5384 25.1642 12.7273 25.025 12.8666C24.8857 13.0058 24.6969 13.0841 24.4999 13.0841V13.0593Z" fill="black"/>
<path d="M45.792 31.1882H31.9306C31.7336 31.1882 31.5448 31.11 31.4055 30.9707C31.2662 30.8314 31.188 30.6426 31.188 30.4456C31.188 30.2487 31.2662 30.0598 31.4055 29.9205C31.5448 29.7813 31.7336 29.703 31.9306 29.703H45.0147C44.8556 27.7129 43.9585 25.8541 42.4995 24.4913C41.0406 23.1284 39.125 22.36 37.1286 22.3367C35.6482 22.3375 34.198 22.756 32.9449 23.5442C31.6917 24.3324 30.6864 25.4581 30.0444 26.7922C30.0121 26.8927 29.9587 26.9852 29.8877 27.0635C29.8168 27.1418 29.7299 27.204 29.633 27.246C29.5361 27.2881 29.4313 27.3089 29.3257 27.3073C29.2201 27.3056 29.116 27.2814 29.0205 27.2363C28.925 27.1912 28.8402 27.1262 28.7718 27.0457C28.7033 26.9652 28.6529 26.8711 28.6238 26.7695C28.5946 26.668 28.5875 26.5614 28.6029 26.4569C28.6182 26.3524 28.6557 26.2523 28.7128 26.1634C29.4723 24.5749 30.6654 23.2333 32.1544 22.2935C33.6435 21.3537 35.3678 20.8538 37.1286 20.8516C39.6474 20.879 42.0524 21.9046 43.8158 23.7033C45.5792 25.502 46.557 27.9268 46.5345 30.4456C46.5345 30.6426 46.4563 30.8314 46.3171 30.9707C46.1778 31.11 45.9889 31.1882 45.792 31.1882Z" fill="black"/>
<path d="M37.1288 19.3068C35.8559 19.3068 34.6116 18.9294 33.5533 18.2222C32.495 17.5151 31.6701 16.51 31.183 15.334C30.6959 14.158 30.5685 12.8641 30.8168 11.6157C31.0651 10.3673 31.678 9.22055 32.5781 8.32051C33.4781 7.42047 34.6248 6.80753 35.8732 6.55921C37.1216 6.31089 38.4156 6.43834 39.5916 6.92543C40.7675 7.41253 41.7726 8.23741 42.4798 9.29574C43.187 10.3541 43.5644 11.5983 43.5644 12.8712C43.5644 13.7163 43.3979 14.5532 43.0745 15.334C42.7511 16.1148 42.2771 16.8243 41.6795 17.4219C41.0818 18.0195 40.3724 18.4935 39.5916 18.817C38.8108 19.1404 37.9739 19.3068 37.1288 19.3068ZM37.1288 7.9207C36.1496 7.9207 35.1925 8.21104 34.3784 8.75501C33.5643 9.29897 32.9298 10.0721 32.5551 10.9767C32.1804 11.8813 32.0824 12.8767 32.2734 13.837C32.4644 14.7973 32.9359 15.6794 33.6282 16.3717C34.3206 17.0641 35.2027 17.5356 36.163 17.7266C37.1233 17.9176 38.1186 17.8195 39.0232 17.4449C39.9278 17.0702 40.701 16.4356 41.2449 15.6215C41.7889 14.8074 42.0793 13.8503 42.0793 12.8712C42.0793 11.5582 41.5577 10.2991 40.6293 9.37066C39.7009 8.44227 38.4417 7.9207 37.1288 7.9207Z" fill="black"/>
<path d="M40.9604 13.5643C39.4341 13.5519 37.9619 12.9975 36.8066 12C35.6514 11.0025 34.8882 9.62687 34.6535 8.11871C34.6246 7.92177 34.6751 7.72142 34.7939 7.56173C34.9128 7.40205 35.0902 7.29611 35.2871 7.26722C35.4841 7.23834 35.6844 7.28887 35.8441 7.40771C36.0038 7.52654 36.1097 7.70395 36.1386 7.90089C36.246 8.61116 36.5078 9.28924 36.9058 9.8873C37.3037 10.4854 37.828 10.9888 38.4416 11.3622C39.0553 11.7356 39.7434 11.9698 40.4575 12.0484C41.1715 12.1269 41.8941 12.0478 42.5742 11.8167C42.6666 11.7842 42.7644 11.7702 42.8621 11.7755C42.9598 11.7808 43.0556 11.8053 43.1438 11.8476C43.2321 11.8899 43.3111 11.9492 43.3765 12.022C43.4419 12.0949 43.4922 12.1799 43.5247 12.2722C43.5572 12.3645 43.5713 12.4623 43.566 12.56C43.5607 12.6578 43.5362 12.7535 43.4939 12.8417C43.4516 12.93 43.3923 13.0091 43.3195 13.0744C43.2466 13.1398 43.1616 13.1902 43.0693 13.2227C42.3905 13.4543 41.6776 13.5698 40.9604 13.5643Z" fill="black"/>
<path d="M44.3068 25.7426C44.1689 25.7426 44.0337 25.7042 43.9164 25.6317C43.7991 25.5592 43.7043 25.4554 43.6426 25.3321C43.581 25.2087 43.5549 25.0706 43.5672 24.9333C43.5796 24.7959 43.63 24.6648 43.7128 24.5544C45.287 22.4604 44.4306 20.4406 43.4405 18.1188C42.7722 16.5346 42.0791 14.9109 42.0791 13.1188C42.0791 12.9219 42.1573 12.733 42.2966 12.5937C42.4359 12.4545 42.6247 12.3762 42.8217 12.3762C43.0186 12.3762 43.2075 12.4545 43.3468 12.5937C43.486 12.733 43.5643 12.9219 43.5643 13.1188C43.5643 14.6039 44.193 16.0891 44.8068 17.5297C45.8811 20.0544 46.99 22.6633 44.9009 25.4505C44.8312 25.5418 44.7413 25.6157 44.6382 25.6664C44.5351 25.7171 44.4217 25.7431 44.3068 25.7426Z" fill="black"/>
<path d="M29.9802 25.7426C29.8649 25.7426 29.7512 25.7158 29.6481 25.6642C29.545 25.6127 29.4553 25.5378 29.3861 25.4456C27.302 22.6634 28.396 20.0545 29.4802 17.5248C30.0891 16.0892 30.7227 14.604 30.7227 13.1139C30.7227 12.917 30.801 12.7281 30.9402 12.5888C31.0795 12.4496 31.2684 12.3713 31.4653 12.3713C31.6623 12.3713 31.8511 12.4496 31.9904 12.5888C32.1297 12.7281 32.2079 12.917 32.2079 13.1139C32.2079 14.906 31.5148 16.5298 30.8465 18.104C29.8564 20.4357 29 22.4505 30.5742 24.5397C30.657 24.65 30.7074 24.7812 30.7197 24.9185C30.7321 25.0559 30.706 25.1939 30.6444 25.3173C30.5827 25.4406 30.4879 25.5444 30.3706 25.6169C30.2533 25.6894 30.1181 25.7278 29.9802 25.7278V25.7426Z" fill="black"/>
</svg>
