<svg width="50" height="50" viewBox="0 0 50 50" fill="none" xmlns="http://www.w3.org/2000/svg">
<path d="M43.524 22.8968C43.7676 22.5635 43.6949 22.0961 43.3615 21.8525L35.6418 16.2084L35.6099 16.1845C35.2063 15.4919 35.0818 14.8721 35.294 14.5826C35.4918 14.3121 36.0747 14.2329 36.8017 14.3709C36.8774 14.4043 36.9601 14.4257 37.0473 14.4327C38.0428 14.5074 38.8355 14.2114 39.2869 13.5986C39.82 12.8697 39.7777 11.8443 39.1673 10.7113C38.6502 9.75068 37.7588 8.77861 36.6587 7.97445C35.0294 6.78415 33.2148 6.16982 31.9289 6.37061C31.3126 6.46677 30.8203 6.74629 30.5074 7.17477C30.1243 7.69394 30.0371 8.39148 30.2523 9.16276C30.2423 9.31522 30.2802 9.46868 30.3624 9.60221C30.8193 10.3416 30.9703 11.0167 30.7461 11.3231C30.5488 11.5937 29.9698 11.6734 29.2478 11.5349L21.4015 5.80112C21.2421 5.68404 21.0413 5.63571 20.846 5.6661C20.6497 5.69649 20.4743 5.80361 20.3577 5.96355L14.5303 13.9379C14.47 14.0206 14.4272 14.1143 14.4047 14.2139C14.0804 15.6459 14.3554 16.8053 15.1616 17.3957C15.9702 17.9831 17.1486 17.8944 18.4126 17.1555C18.4141 17.1555 18.4151 17.155 18.4161 17.1545C18.8142 17.0036 19.151 16.9846 19.3179 17.1082C19.4524 17.2059 19.5082 17.4072 19.5321 17.5586C19.6462 18.2945 19.2775 19.6976 18.1959 21.1763C17.1167 22.6551 15.8905 23.4324 15.1546 23.5465C15.0036 23.5699 14.7959 23.5774 14.6628 23.4802C14.5034 23.3631 14.4197 23.0742 14.4292 22.6795C14.7475 21.2406 14.4775 20.1226 13.6654 19.5272C12.8273 18.9178 11.5917 19.0359 10.2768 19.8485C10.1946 19.8994 10.1229 19.9656 10.0661 20.0438L4.30838 27.9245C4.06474 28.2579 4.13749 28.7252 4.47081 28.9688L12.4472 34.7983C12.5299 34.8591 12.624 34.9014 12.7242 34.9238C14.178 35.2507 15.3086 34.9821 15.904 34.167C16.4819 33.3783 16.4087 32.2318 15.7101 30.9942C15.7027 30.9613 15.6932 30.9284 15.6812 30.8965C15.5402 30.5129 15.5283 30.199 15.6484 30.0351C15.9996 29.5548 17.8023 29.7581 19.718 31.1561C21.6307 32.5567 22.3691 34.2113 22.0194 34.6901C21.9102 34.8386 21.6442 34.9223 21.2909 34.9243C21.266 34.9159 21.2401 34.9089 21.2147 34.9029C19.7823 34.582 18.6238 34.8591 18.0344 35.6632C17.4186 36.5097 17.5327 37.713 18.3563 39.0513C18.4071 39.134 18.4734 39.2057 18.5521 39.263L26.4308 45.0202C26.5638 45.1173 26.7178 45.1642 26.8712 45.1642C27.1014 45.1642 27.3286 45.058 27.4751 44.8578L33.1705 37.0668C33.8631 36.6652 34.4829 36.5406 34.7709 36.7529C35.014 36.9312 35.2546 37.6781 35.0693 38.5769C35.0514 38.6367 35.0399 38.6985 35.0379 38.7613C34.9831 39.9735 35.4639 40.5888 35.8789 40.8923C37.2561 41.8962 39.6735 40.7672 41.4996 38.265C42.3043 37.1644 42.8588 35.9676 43.0606 34.8949C43.2992 33.6304 43.0287 32.6409 42.2963 32.1058C41.8942 31.8153 41.1892 31.5472 40.1065 31.9199C40.0547 31.9379 40.0049 31.9613 39.958 31.9902C39.1359 32.4979 38.3203 32.4202 38.0299 32.2089C37.7598 32.0111 37.6796 31.4307 37.8161 30.7077L43.524 22.8968ZM37.148 33.4151C38.0318 34.0589 39.4648 34.012 40.6626 33.3095C40.8848 33.2408 41.2216 33.174 41.4174 33.3145C41.6411 33.4779 41.7099 33.9896 41.5918 34.6179C41.4323 35.4639 40.9585 36.4714 40.2924 37.3831C38.8958 39.2969 37.2401 40.0348 36.7598 39.685C36.6044 39.5709 36.5212 39.2874 36.5281 38.9008C36.8211 37.5142 36.4654 36.141 35.6542 35.5471C34.8192 34.9343 33.582 35.0509 32.2622 35.8685C32.1805 35.9193 32.1092 35.9851 32.0524 36.0628L26.7088 43.372L19.5566 38.145C19.1565 37.4509 19.0324 36.8311 19.2412 36.5441C19.436 36.2785 20 36.1968 20.7045 36.3239C20.7952 36.3717 20.8958 36.4016 21.0035 36.4086C21.9865 36.4763 22.7787 36.1804 23.2251 35.573C24.2306 34.1984 23.102 31.7804 20.5994 29.9484C18.0927 28.1193 15.4456 27.778 14.4416 29.1522C14.055 29.6813 13.9713 30.3913 14.199 31.1706C14.199 31.3081 14.2368 31.4441 14.3111 31.5632C14.769 32.3041 14.9214 32.9792 14.6977 33.2836C14.5009 33.5532 13.9229 33.6329 13.1985 33.4954L5.95607 28.202L11.1831 21.0468C11.8757 20.6467 12.496 20.5246 12.784 20.7339C13.062 20.9377 13.1377 21.5465 12.9818 22.2979C12.9583 22.3637 12.9444 22.4329 12.9404 22.5042C12.8841 23.4742 13.1821 24.2485 13.7799 24.686C14.2114 25.0023 14.7655 25.1189 15.3838 25.0233C16.6737 24.823 18.2138 23.6865 19.4026 22.0582C20.5939 20.43 21.2087 18.6179 21.0084 17.3289C20.9128 16.7111 20.6328 16.2179 20.2028 15.9035C19.6467 15.4929 18.8874 15.4222 18.0479 15.6997C17.9482 15.7141 17.8506 15.7485 17.7619 15.8038C17.022 16.2607 16.3454 16.4102 16.0435 16.189C15.7734 15.9912 15.6942 15.4112 15.8322 14.6902L21.124 7.44881L28.497 12.8373C28.5792 12.8976 28.6734 12.9404 28.773 12.9628C30.2274 13.2922 31.3574 13.0226 31.9533 12.206C32.5253 11.4253 32.462 10.2963 31.7874 9.07656C31.7794 9.02923 31.7675 8.98289 31.751 8.93705C31.6055 8.54444 31.5916 8.22606 31.7141 8.05965C31.8103 7.92712 32.0101 7.87181 32.1606 7.8484C32.8975 7.7338 34.3 8.1015 35.7788 9.18219C36.6891 9.84734 37.4454 10.6635 37.8535 11.4208C38.1564 11.9838 38.2466 12.4925 38.0842 12.7147C37.9661 12.8747 37.6841 12.9579 37.2999 12.9494C37.2895 12.9469 37.2785 12.9439 37.2685 12.9414C35.8127 12.6166 34.6852 12.8866 34.0898 13.7002C33.4769 14.5368 33.5945 15.7724 34.4121 17.0908C34.4619 17.1705 34.5257 17.2402 34.601 17.296L41.8783 22.6178L36.5147 29.9554C36.4539 30.0386 36.4111 30.1332 36.3886 30.2334C36.0618 31.6877 36.3313 32.8173 37.148 33.4151Z" fill="#231F20"/>
</svg>
