<svg width="50" height="50" viewBox="0 0 50 50" fill="none" xmlns="http://www.w3.org/2000/svg">
<path d="M42.4422 27.0282L31.1148 25.3825L26.0497 15.1193C25.9243 14.8646 25.6651 14.7034 25.3805 14.7034C25.0959 14.7034 24.8367 14.8646 24.7113 15.1193L19.6467 25.3825L8.3193 27.0282C8.03871 27.069 7.80487 27.2661 7.71682 27.5362C7.62876 27.8064 7.70239 28.1034 7.90587 28.3014L16.1014 36.2899L14.1671 47.5705C14.1188 47.8506 14.2342 48.1337 14.4641 48.3009C14.6944 48.4675 14.9989 48.4894 15.2501 48.3576L25.38 43.0312L35.5113 48.3576C35.6208 48.4148 35.7397 48.4432 35.8586 48.4432C36.0133 48.4432 36.1671 48.3949 36.2974 48.3009C36.5273 48.1337 36.6422 47.8506 36.5944 47.5705L34.6581 36.2899L42.8546 28.3014C43.0581 28.1034 43.1312 27.8064 43.0437 27.5362C42.9566 27.2661 42.7228 27.069 42.4422 27.0282ZM33.3367 35.4949C33.1606 35.6666 33.0805 35.9133 33.1218 36.1556L34.8686 46.3322L25.7283 41.5273C25.5103 41.4133 25.2511 41.4133 25.0337 41.5273L15.8949 46.3322L17.6397 36.1556C17.681 35.9133 17.6009 35.6666 17.4248 35.4949L10.0317 28.2884L20.2506 26.8039C20.4934 26.7685 20.7039 26.6158 20.8123 26.3959L25.3815 17.1372L29.9511 26.3959C30.0596 26.6158 30.2701 26.7685 30.5128 26.8039L40.7317 28.2884L33.3367 35.4949Z" fill="black"/>
<path d="M12.7109 18.9098C12.9915 18.9098 13.2606 18.7506 13.3875 18.4795C13.5621 18.1064 13.4004 17.6621 13.0268 17.4875L5.18251 13.8223C4.80987 13.6487 4.3651 13.8098 4.19047 14.183C4.01584 14.5561 4.17754 15.0004 4.55117 15.175L12.3954 18.8402C12.4974 18.8875 12.6049 18.9098 12.7109 18.9098Z" fill="black"/>
<path d="M45.5601 14.1825C45.385 13.8094 44.9402 13.6482 44.5681 13.8218L36.7238 17.487C36.3502 17.6621 36.189 18.1059 36.3631 18.479C36.49 18.7502 36.7591 18.9094 37.0397 18.9094C37.1457 18.9094 37.2532 18.887 37.3551 18.8392L45.1994 15.174C45.5736 14.9999 45.7347 14.5556 45.5601 14.1825Z" fill="black"/>
<path d="M25.381 11.4347C25.793 11.4347 26.1273 11.1004 26.1273 10.6884V2.05511C26.1273 1.64267 25.793 1.30884 25.381 1.30884C24.9691 1.30884 24.6348 1.64267 24.6348 2.05511V10.6884C24.6348 11.1004 24.9691 11.4347 25.381 11.4347Z" fill="black"/>
</svg>
