<svg width="50" height="50" viewBox="0 0 50 50" fill="none" xmlns="http://www.w3.org/2000/svg">
<path d="M26.595 2.73486C17.2689 2.73486 9.68172 10.3226 9.68172 19.6497C9.68172 20.2799 9.7161 20.9112 9.78436 21.5315C8.55619 22.8817 4.9853 27.1477 6.84822 29.1975C7.2229 29.6105 8.83969 30.6832 10.0106 31.1247L10.0026 33.2128C10.0026 37.6327 13.0424 42.3306 18.6511 42.3301L21.7681 42.4332V46.3414C21.7681 46.754 22.1024 47.0888 22.5154 47.0888C22.9285 47.0888 23.2628 46.754 23.2628 46.3414V41.7103C23.2628 41.3067 22.9429 40.9764 22.5403 40.9634L18.676 40.8359C13.9631 40.8359 11.4973 37.0009 11.4973 33.2158L11.5073 30.5995C11.5073 30.5497 11.5028 30.4999 11.4928 30.4495C11.4286 30.1282 11.165 29.893 10.8516 29.8546C10.3997 29.6982 8.54174 28.8397 7.95481 28.1925C7.46156 27.6499 8.28415 25.2992 11.1117 22.2973C11.2656 22.1339 11.3379 21.9102 11.309 21.6875C11.2213 21.0198 11.1769 20.3342 11.1769 19.6492C11.1769 11.1467 18.0935 4.22909 26.5955 4.22909C35.099 4.22909 42.0176 11.1467 42.0176 19.6492C42.0176 24.0641 40.1183 28.2742 36.807 31.1994C36.6465 31.3409 36.5544 31.5447 36.5544 31.7589L36.5439 46.2542C36.5434 46.6668 36.8782 47.0016 37.2908 47.0021C37.7033 47.0021 38.0381 46.6678 38.0386 46.2552L38.0491 32.0922C41.5253 28.8945 43.5123 24.3795 43.5123 19.6492C43.5118 10.3226 35.9231 2.73486 26.595 2.73486Z" fill="black"/>
<path d="M26.6423 10.0845C21.1561 10.0845 16.6924 14.5442 16.6924 20.0259C16.6924 20.4389 17.0267 20.7732 17.4397 20.7732C17.8528 20.7732 18.1871 20.4389 18.1871 20.0259C18.1871 15.3683 21.9802 11.5792 26.6423 11.5792C31.3028 11.5792 35.0939 15.3683 35.0939 20.0259C35.0939 22.5799 34.0127 24.9719 32.2016 26.4248C31.1299 27.2853 29.3258 28.1921 26.8211 27.636C22.9702 26.7785 22.6713 22.9017 22.6713 21.7334C22.6713 19.3059 24.5825 17.3274 26.9447 17.2935C26.9836 17.3 27.0234 17.303 27.0633 17.303C28.3926 17.303 29.4738 18.3842 29.4738 19.713C29.4738 21.0443 28.3926 22.127 27.0633 22.127C26.6507 22.127 26.3159 22.4613 26.3159 22.8743C26.3159 23.2874 26.6507 23.6217 27.0633 23.6217C29.2167 23.6217 30.9685 21.8679 30.9685 19.713C30.9685 17.583 29.2535 15.8456 27.1315 15.8088C27.0902 15.8018 27.0483 15.7983 27.0065 15.7983C23.7918 15.7983 21.1766 18.4609 21.1766 21.7334C21.1766 24.7198 22.5741 28.2215 26.4968 29.0944C27.1061 29.2299 27.7115 29.2967 28.3079 29.2967C30.0662 29.2967 31.7363 28.7142 33.1368 27.5907C35.2982 25.8568 36.5886 23.0288 36.5886 20.0254C36.5886 14.5442 32.1264 10.0845 26.6423 10.0845Z" fill="black"/>
</svg>
