<svg width="50" height="50" viewBox="0 0 50 50" fill="none" xmlns="http://www.w3.org/2000/svg">
<path d="M24.8138 30.1738C16.3731 30.1738 9.5061 37.0408 9.5061 45.4815C9.5061 45.8929 9.83911 46.2259 10.2505 46.2259H39.3771C39.7885 46.2259 40.1215 45.8929 40.1215 45.4815C40.1215 37.0408 33.2545 30.1738 24.8138 30.1738ZM11.0148 44.7371C11.4029 37.4622 17.4441 31.6627 24.8138 31.6627C32.1835 31.6627 38.2247 37.4622 38.6128 44.7371H11.0148Z" fill="black"/>
<path d="M24.5612 28.8125C29.4435 28.8125 33.4163 24.8388 33.4163 19.954C33.4163 18.2284 32.9185 16.5639 31.982 15.1272V4.14652C31.982 3.7351 31.649 3.4021 31.2376 3.4021H17.8857C17.4743 3.4021 17.1413 3.7351 17.1413 4.14652V15.1222C16.2024 16.5619 15.7046 18.2299 15.7046 19.954C15.7041 24.8388 19.6773 28.8125 24.5612 28.8125ZM18.6297 4.89143H30.4927V14.7907H18.6297V4.89143ZM18.178 16.279H30.9468C31.5895 17.3932 31.9274 18.6532 31.9274 19.954C31.9269 24.018 28.6227 27.3237 24.5612 27.3237C20.4986 27.3237 17.1934 24.0175 17.1934 19.954C17.1934 18.6552 17.5339 17.3947 18.178 16.279Z" fill="black"/>
<path d="M27.1552 9.17881H25.3055V7.3262C25.3055 6.91479 24.9725 6.58179 24.5611 6.58179C24.1497 6.58179 23.8167 6.91479 23.8167 7.3262V9.17881H21.9666C21.5552 9.17881 21.2222 9.51181 21.2222 9.92323C21.2222 10.3346 21.5552 10.6676 21.9666 10.6676H23.8167V12.5178C23.8167 12.9292 24.1497 13.2622 24.5611 13.2622C24.9725 13.2622 25.3055 12.9292 25.3055 12.5178V10.6676H27.1552C27.5666 10.6676 27.8996 10.3346 27.8996 9.92323C27.8996 9.51181 27.5661 9.17881 27.1552 9.17881Z" fill="black"/>
</svg>
