<svg width="50" height="50" viewBox="0 0 50 50" fill="none" xmlns="http://www.w3.org/2000/svg">
<path d="M35.4071 10.2304C32.1307 9.51394 28.6769 12.5348 27.7073 16.9656C27.6186 17.3687 27.8742 17.7673 28.2773 17.8555C28.3311 17.8669 28.3854 17.8729 28.4377 17.8729C28.781 17.8729 29.0909 17.6343 29.1671 17.285C29.9613 13.6593 32.6219 11.1502 35.0882 11.6903C35.4923 11.7799 35.8894 11.5233 35.9781 11.1198C36.0663 10.7167 35.8107 10.3181 35.4071 10.2304Z" fill="black"/>
<path d="M39.7143 6.35764C37.0811 5.13645 34.0025 5.32379 31.0439 6.88528C29.5163 7.69143 28.1202 8.82394 26.911 10.1951C24.9928 4.77772 20.5599 1.2417 15.9507 1.65076C10.0649 2.16992 5.81894 8.77112 6.48658 16.3668C7.02917 22.5266 10.5388 27.631 15.1057 29.0097L15.4973 33.4555C15.5317 33.8441 15.858 34.1371 16.2411 34.1371C16.2631 34.1371 16.285 34.1361 16.3074 34.1341L17.8779 33.9961C17.4788 35.3503 16.9546 38.0378 18.2182 40.1862C19.4179 42.2255 18.5729 44.8114 18.255 45.7845C18.2007 45.9509 18.1599 46.0799 18.138 46.1656C18.0363 46.5657 18.278 46.9723 18.678 47.0739C18.7398 47.0894 18.8021 47.0968 18.8629 47.0968C19.1967 47.0968 19.5006 46.8721 19.5868 46.5333C19.6033 46.4695 19.6357 46.3734 19.6765 46.2488C20.0517 45.0999 21.0482 42.0482 19.5071 39.4284C18.3193 37.409 19.253 34.5257 19.4977 33.8541L21.2719 33.6981C21.6829 33.6623 21.9874 33.2995 21.951 32.8885L21.5609 28.4427C22.2873 28.073 22.9709 27.5922 23.6066 27.0137C24.0536 27.9982 24.6285 28.8936 25.344 29.6534L23.4661 33.7016C23.3829 33.881 23.374 34.0868 23.4427 34.2726C23.511 34.4589 23.6505 34.6104 23.8299 34.6941L25.2379 35.3468C24.8946 36.3004 23.8926 39.5938 25.3859 42.1309C26.5841 44.1707 25.7406 46.7555 25.4227 47.7286C25.3684 47.8955 25.3271 48.0256 25.3057 48.1112C25.204 48.5113 25.4462 48.9174 25.8467 49.019C25.908 49.0345 25.9698 49.042 26.0306 49.042C26.3644 49.042 26.6688 48.8168 26.7545 48.478C26.7705 48.4142 26.8034 48.3175 26.8442 48.1925C27.2189 47.044 28.2144 43.9938 26.6743 41.373C25.5732 39.5011 26.2952 36.8864 26.6016 35.9786L28.3524 36.7902C28.454 36.837 28.5612 36.8595 28.6663 36.8595C28.9483 36.8595 29.2183 36.6995 29.3444 36.4265L31.2218 32.3788C35.9869 32.6244 41.0237 29.0152 43.622 23.4119C46.8277 16.4934 45.0754 8.84287 39.7143 6.35764ZM20.4737 27.3012C20.1778 27.4288 19.9969 27.7317 20.0253 28.0526L20.396 32.2742L16.9207 32.5796L16.5486 28.358C16.5202 28.0366 16.289 27.7696 15.9751 27.6963C11.8392 26.7252 8.47506 21.9053 7.97533 16.2358C7.37993 9.46118 11.0166 3.58642 16.0817 3.1395C20.2575 2.7713 24.2912 6.32227 25.7934 11.6151C25.1841 12.478 24.6345 13.4033 24.1746 14.3958C22.4263 18.165 22.0845 22.1863 23.0372 25.4757C22.2639 26.2798 21.4049 26.8991 20.4737 27.3012ZM42.2648 22.7832C39.8737 27.94 35.0752 31.3335 30.8481 30.8482C30.5262 30.8113 30.2203 30.9837 30.0853 31.2762L28.3031 35.1196L25.1367 33.6518L26.9195 29.8074C27.055 29.5149 26.9882 29.1681 26.7525 28.9474C23.6505 26.0417 23.1368 20.1863 25.5309 15.0236C25.9982 14.0161 26.5617 13.0834 27.1925 12.2259C27.2174 12.1955 27.2408 12.1646 27.2607 12.1308C28.5098 10.4597 30.0379 9.10544 31.7419 8.20661C34.2795 6.86834 36.8873 6.69346 39.086 7.71336C43.6987 9.85231 45.1252 16.6129 42.2648 22.7832Z" fill="black"/>
</svg>
