<svg width="50" height="50" viewBox="0 0 50 50" fill="none" xmlns="http://www.w3.org/2000/svg">
<path d="M25.9902 40.5941H14.109C10.5793 40.5941 7.70801 37.5941 7.70801 33.9109C7.70801 30.2277 10.5644 27.2277 14.0941 27.2277H34.4407C38.7872 27.2277 42.3268 23.5644 42.3268 19.0594C42.3268 14.5545 38.7872 10.8911 34.4357 10.8911H19.0595C18.8625 10.8911 18.6737 10.9693 18.5344 11.1086C18.3952 11.2479 18.3169 11.4367 18.3169 11.6337C18.3169 11.8306 18.3952 12.0195 18.5344 12.1588C18.6737 12.298 18.8625 12.3763 19.0595 12.3763H34.4357C37.9654 12.3763 40.8367 15.3763 40.8367 19.0594C40.8367 22.7426 37.9654 25.7426 34.4357 25.7426H14.0941C9.74761 25.7426 6.20801 29.406 6.20801 33.9109C6.20801 38.4159 9.74266 42.0792 14.0941 42.0792H25.9753C26.1723 42.0792 26.3612 42.001 26.5004 41.8617C26.6397 41.7225 26.7179 41.5336 26.7179 41.3367C26.7179 41.1397 26.6397 40.9508 26.5004 40.8116C26.3612 40.6723 26.1723 40.5941 25.9753 40.5941H25.9902Z" fill="black"/>
<path d="M10.1486 15.8416C10.9808 15.8416 11.7944 15.5948 12.4864 15.1325C13.1784 14.6701 13.7177 14.0129 14.0362 13.244C14.3547 12.4751 14.438 11.629 14.2757 10.8128C14.1133 9.99652 13.7125 9.24674 13.124 8.65825C12.5356 8.06977 11.7858 7.669 10.9695 7.50664C10.1533 7.34427 9.30719 7.4276 8.53829 7.74609C7.7694 8.06458 7.11221 8.60392 6.64984 9.29591C6.18746 9.9879 5.94067 10.8015 5.94067 11.6337C5.94198 12.7493 6.38574 13.8189 7.17459 14.6077C7.96345 15.3966 9.03299 15.8403 10.1486 15.8416ZM10.1486 8.91093C10.6871 8.91093 11.2135 9.07062 11.6613 9.3698C12.109 9.66898 12.458 10.0942 12.6641 10.5917C12.8702 11.0893 12.9241 11.6367 12.819 12.1649C12.714 12.6931 12.4547 13.1782 12.0739 13.559C11.6931 13.9398 11.2079 14.1991 10.6798 14.3042C10.1516 14.4092 9.60416 14.3553 9.10663 14.1492C8.60911 13.9431 8.18387 13.5942 7.88469 13.1464C7.58551 12.6986 7.42582 12.1722 7.42582 11.6337C7.42713 10.912 7.71441 10.2202 8.22475 9.70986C8.73508 9.19952 9.42687 8.91224 10.1486 8.91093Z" fill="black"/>
<path d="M39.8962 35.8812C39.7569 35.7422 39.5682 35.6641 39.3714 35.6641C39.1746 35.6641 38.9859 35.7422 38.8466 35.8812L35.9803 38.7476L33.114 35.8812C32.9732 35.7501 32.787 35.6787 32.5946 35.682C32.4023 35.6854 32.2187 35.7634 32.0827 35.8994C31.9466 36.0355 31.8687 36.219 31.8653 36.4114C31.8619 36.6038 31.9333 36.79 32.0645 36.9307L34.9308 39.7971L32.0645 42.6634C31.9915 42.7314 31.933 42.8134 31.8924 42.9045C31.8518 42.9955 31.83 43.0939 31.8282 43.1936C31.8265 43.2933 31.8448 43.3923 31.8822 43.4848C31.9195 43.5773 31.9751 43.6612 32.0456 43.7318C32.1161 43.8023 32.2001 43.8579 32.2926 43.8952C32.3851 43.9326 32.4841 43.9509 32.5838 43.9491C32.6835 43.9474 32.7818 43.9256 32.8729 43.885C32.964 43.8444 33.046 43.7859 33.114 43.7129L35.9803 40.8466L38.8466 43.7129C38.9874 43.8441 39.1736 43.9155 39.366 43.9121C39.5584 43.9087 39.7419 43.8308 39.878 43.6947C40.014 43.5587 40.0919 43.3751 40.0953 43.1827C40.0987 42.9904 40.0273 42.8042 39.8962 42.6634L37.0298 39.7971L39.8962 36.9307C40.0352 36.7915 40.1133 36.6028 40.1133 36.406C40.1133 36.2092 40.0352 36.0205 39.8962 35.8812Z" fill="black"/>
</svg>
