<svg width="50" height="50" viewBox="0 0 50 50" fill="none" xmlns="http://www.w3.org/2000/svg">
<path d="M11.2156 25.1392H14.7802" stroke="black" stroke-width="1.45574" stroke-miterlimit="10" stroke-linecap="round" stroke-linejoin="round"/>
<path d="M11.2156 29.8286H14.7802" stroke="black" stroke-width="1.45574" stroke-miterlimit="10" stroke-linecap="round" stroke-linejoin="round"/>
<path d="M14.7803 19.2434V37.7338H41.8726L44.2843 19.2434H14.7803Z" stroke="black" stroke-width="1.45574" stroke-miterlimit="10" stroke-linecap="round" stroke-linejoin="round"/>
<path d="M44.2842 21.6551L47.6334 19.2434V28.4888L43.356 26.3581" stroke="black" stroke-width="1.45574" stroke-miterlimit="10" stroke-linecap="round" stroke-linejoin="round"/>
<path d="M20.4082 30.5658C21.5552 30.5658 22.485 29.636 22.485 28.489C22.485 27.342 21.5552 26.4121 20.4082 26.4121C19.2611 26.4121 18.3313 27.342 18.3313 28.489C18.3313 29.636 19.2611 30.5658 20.4082 30.5658Z" stroke="black" stroke-width="1.45574" stroke-miterlimit="10" stroke-linecap="round" stroke-linejoin="round"/>
<path d="M27.2414 30.5658C28.3884 30.5658 29.3183 29.636 29.3183 28.489C29.3183 27.342 28.3884 26.4121 27.2414 26.4121C26.0944 26.4121 25.1646 27.342 25.1646 28.489C25.1646 29.636 26.0944 30.5658 27.2414 30.5658Z" stroke="black" stroke-width="1.45574" stroke-miterlimit="10" stroke-linecap="round" stroke-linejoin="round"/>
<path d="M20.0359 19.2435L24.3575 12.7319" stroke="black" stroke-width="1.45574" stroke-miterlimit="10" stroke-linecap="round" stroke-linejoin="round"/>
<path d="M1.88135 21.655H4.42696L6.03507 23.9333V31.0344L3.95821 33.0438H1.88135V21.655Z" stroke="black" stroke-width="1.45574" stroke-miterlimit="10" stroke-linecap="round" stroke-linejoin="round"/>
<path d="M6.03516 23.9333H11.1404V31.0345H6.03516" stroke="black" stroke-width="1.45574" stroke-miterlimit="10" stroke-linecap="round" stroke-linejoin="round"/>
<path d="M24.3574 12.7319H43.9891" stroke="black" stroke-width="1.45574" stroke-miterlimit="10" stroke-linecap="round" stroke-linejoin="round"/>
</svg>
