<svg width="50" height="50" viewBox="0 0 50 50" fill="none" xmlns="http://www.w3.org/2000/svg">
<path d="M48.5892 19.5842C48.526 19.3978 48.3915 19.2441 48.2152 19.1569C48.0388 19.0696 47.835 19.0559 47.6486 19.1188L43.4506 20.5347L30.6238 24.8614C30.411 18.0099 27.8812 14.2426 23.4407 14.2426C21.8769 14.2563 20.3378 14.6343 18.9456 15.3465C18.1265 15.7539 17.2444 16.0201 16.3367 16.1337C16.3523 14.6166 16.9657 13.1669 18.0436 12.0991C19.1215 11.0314 20.5769 10.4319 22.0941 10.4307C22.2911 10.4307 22.4799 10.3525 22.6192 10.2132C22.7585 10.074 22.8367 9.88507 22.8367 9.68813C22.8367 9.49119 22.7585 9.30231 22.6192 9.16305C22.4799 9.02379 22.2911 8.94556 22.0941 8.94556C20.1873 8.94673 18.3578 9.69932 17.0021 11.0402C15.6463 12.3811 14.8737 14.2022 14.8515 16.1089C14.187 15.9881 13.5508 15.7447 12.9753 15.3911C11.5974 14.5782 10.0145 14.1795 8.4159 14.2426C3.46541 14.2426 0.727783 18.3564 0.727783 25.8218C0.733031 29.7883 2.31273 33.5904 5.11978 36.3928C7.92683 39.1953 11.7316 40.7687 15.6981 40.7673C18.7638 40.7697 21.7547 39.82 24.2575 38.0495C24.8654 38.4632 25.5005 38.8353 26.1585 39.1634C29.0133 40.5846 32.2258 41.1261 35.3887 40.7195C38.5517 40.3129 41.5227 38.9763 43.9252 36.8792C46.3276 34.7822 48.0534 32.019 48.8837 28.94C49.7141 25.861 49.6115 22.6048 48.5892 19.5842ZM42.7476 28.5644L37.7674 25.7772C37.6821 25.7273 37.5877 25.6949 37.4897 25.682C37.3917 25.669 37.2921 25.6757 37.1968 25.7018C37.1014 25.7278 37.0123 25.7726 36.9344 25.8335C36.8566 25.8945 36.7918 25.9703 36.7437 26.0567C36.6956 26.143 36.6652 26.2381 36.6543 26.3363C36.6434 26.4345 36.6522 26.534 36.6802 26.6287C36.7083 26.7235 36.7549 26.8117 36.8175 26.8882C36.8801 26.9647 36.9573 27.028 37.0446 27.0743L42.0793 29.8961C40.9914 31.7524 39.3407 33.2141 37.3664 34.0693L35.3268 28.2178C35.2611 28.0321 35.1244 27.88 34.9466 27.795C34.7688 27.7101 34.5646 27.6992 34.3788 27.7649C34.193 27.8305 34.0409 27.9673 33.9559 28.1451C33.871 28.3228 33.8602 28.5271 33.9258 28.7129L35.9753 34.5545C33.5985 35.2029 31.067 34.9642 28.8533 33.8829C26.6396 32.8015 24.8952 30.9515 23.9456 28.6782L43.1783 22.1931C43.7255 24.3077 43.5744 26.5426 42.7476 28.5644ZM15.6981 39.2822C12.1277 39.2796 8.70421 37.8601 6.17954 35.3354C3.65486 32.8107 2.23536 29.3873 2.23273 25.8168C2.23273 21.2129 3.30699 15.7228 8.4357 15.7228C9.78563 15.6688 11.1216 16.0132 12.2773 16.7129C13.0656 17.1815 13.9418 17.4831 14.8515 17.599V20.9307C12.6684 20.6832 11.807 19.6485 11.7575 19.5891C11.6359 19.4401 11.4613 19.3441 11.2704 19.3213C11.0795 19.2984 10.8871 19.3505 10.7338 19.4666C10.5805 19.5827 10.4783 19.7537 10.4485 19.9437C10.4188 20.1337 10.4639 20.3278 10.5743 20.4852C10.6337 20.5644 12.104 22.4654 15.802 22.4654C17.5824 22.4773 19.295 21.783 20.5644 20.5347C20.6758 20.3863 20.7276 20.2017 20.7097 20.0171C20.6918 19.8325 20.6054 19.6613 20.4676 19.5371C20.3298 19.413 20.1505 19.3449 19.9651 19.3463C19.7796 19.3476 19.6013 19.4184 19.4654 19.5446C18.6123 20.3555 17.5093 20.853 16.3367 20.9555V17.6238C17.456 17.5055 18.5446 17.1851 19.5496 16.6782C20.7529 16.0567 22.0863 15.7293 23.4407 15.7228C28.2179 15.7228 29.0941 21.5495 29.1585 25.3515L22.7228 27.5149L18.5248 28.9307C18.3385 28.9938 18.1848 29.1284 18.0975 29.3047C18.0103 29.4811 17.9966 29.6849 18.0595 29.8713C19.0029 32.7061 20.7212 35.2202 23.0199 37.1287C20.8413 38.5447 18.2964 39.2932 15.6981 39.2822ZM37.9753 38.5891C34.4249 39.7754 30.555 39.5564 27.1611 37.9773C23.7672 36.3982 21.1071 33.5789 19.7278 30.099L22.5397 29.1485C23.4137 31.2907 24.905 33.1246 26.8241 34.4169C28.7432 35.7092 31.0033 36.4016 33.3169 36.406C35.1066 36.4047 36.8722 35.9924 38.4772 35.2006C40.0823 34.4089 41.4841 33.259 42.5743 31.8397C43.6645 30.4203 44.4141 28.7694 44.7652 27.0145C45.1162 25.2595 45.0594 23.4474 44.5991 21.7178L47.4011 20.7921C48.4055 24.3974 47.9909 28.2505 46.2424 31.5596C44.494 34.8687 41.5445 37.3824 38.0001 38.5842L37.9753 38.5891Z" fill="black"/>
</svg>
