<svg width="50" height="50" viewBox="0 0 50 50" fill="none" xmlns="http://www.w3.org/2000/svg">
<path d="M45.5538 26.6828C43.8717 25.3171 41.5594 25.211 39.3238 25.1078C37.2945 25.0146 35.3772 24.9265 34.1859 23.924L34.1854 23.9235C33.8765 23.6639 33.7739 23.4746 33.7799 23.3909C33.8068 23.0027 34.9502 22.2863 35.7853 21.7626C37.6019 20.6241 39.8619 19.2076 39.971 16.7986C40.0711 14.5874 38.2511 12.0863 34.4071 9.15413C34.3887 9.13619 34.3688 9.11925 34.3484 9.10331C29.498 5.34507 23.7931 3.8369 18.2816 4.85779C12.9434 5.8468 8.26941 9.07242 5.45833 13.7086C0.0524118 22.6266 4.18084 35.0552 14.6618 41.4138C18.9811 44.032 23.7567 45.2911 28.2688 45.2911C34.9836 45.2911 41.1155 42.5034 44.2952 37.2594C46.1148 34.251 48.0659 28.7181 45.5538 26.6828ZM43.0163 36.4862C38.121 44.5602 25.4911 46.2317 15.4366 40.1363C5.66012 34.2052 1.7569 22.6978 6.73632 14.4843C9.32717 10.2124 13.6345 7.23989 18.5536 6.3286C19.586 6.13728 20.6258 6.04261 21.6666 6.04261C25.7367 6.04261 29.8084 7.49 33.3922 10.2547C33.4042 10.2657 33.4161 10.2767 33.4286 10.2871C33.4396 10.2966 33.4505 10.3056 33.4625 10.3145C36.866 12.9044 38.553 15.0633 38.4773 16.7319C38.4035 18.3581 36.5904 19.4941 34.9906 20.4971C33.583 21.3795 32.3673 22.1413 32.2876 23.2877C32.2443 23.911 32.5592 24.5104 33.2233 25.0685C34.8022 26.3973 37.0658 26.5009 39.2545 26.602C41.3407 26.6977 43.3112 26.7884 44.6116 27.8447C46.1816 29.1152 44.6644 33.7613 43.0163 36.4862Z" fill="#231F20"/>
<path d="M28.0741 18.3009C28.9734 18.848 29.9609 19.1345 30.8971 19.1345C31.2434 19.1345 31.5822 19.0951 31.9076 19.0159C32.774 18.8036 33.4536 18.3258 33.8721 17.6333C34.892 15.9393 33.9553 13.4939 31.7845 12.183C30.5494 11.4342 29.1528 11.1741 27.9505 11.47C27.0856 11.6833 26.4075 12.1621 25.9919 12.8531C25.5709 13.5467 25.4613 14.3718 25.6741 15.2397C25.9685 16.4405 26.8439 17.5565 28.0741 18.3009ZM27.2709 13.6259C27.5335 13.19 27.9799 13.0021 28.3083 12.9209C28.513 12.8706 28.7303 12.8462 28.9555 12.8462C29.6196 12.8462 30.3501 13.0604 31.0107 13.4615L31.0122 13.4625C32.4541 14.3329 33.1776 15.8899 32.5926 16.861C32.3296 17.296 31.8816 17.4833 31.5523 17.564C30.7437 17.7623 29.7332 17.5605 28.8499 17.0234C27.968 16.4898 27.3237 15.6901 27.1259 14.8835C27.0442 14.5526 27.0034 14.0669 27.2709 13.6259Z" fill="#231F20"/>
<path d="M32.8725 32.7399C31.9274 32.1664 30.8148 31.9965 29.7401 32.2605C28.6659 32.5246 27.7601 33.1908 27.1911 34.1329C26.6166 35.0741 26.4437 36.1832 26.7043 37.2559C26.9659 38.3331 27.632 39.2434 28.5797 39.8184C29.2473 40.2244 29.9862 40.4177 30.7171 40.4177C32.1167 40.4177 33.4864 39.7083 34.2676 38.4253C35.4509 36.4762 34.8251 33.9262 32.8725 32.7399ZM32.9901 37.649C32.2298 38.8971 30.5996 39.2977 29.3559 38.5414C28.7501 38.1737 28.3246 37.5917 28.1572 36.9032C27.9908 36.2186 28.1009 35.5121 28.4691 34.9092C28.8333 34.3058 29.4117 33.8808 30.0978 33.7119C30.3091 33.6601 30.5223 33.6342 30.7341 33.6342C31.2109 33.6342 31.6792 33.7642 32.0973 34.0178C33.3449 34.7762 33.7454 36.4054 32.9901 37.649Z" fill="#231F20"/>
<path d="M20.0897 28.6309C19.1455 28.0575 18.034 27.8866 16.9608 28.1501C15.8865 28.4137 14.9802 29.0798 14.4098 30.0235C13.8348 30.9682 13.6629 32.0802 13.9265 33.155C14.1895 34.2282 14.8552 35.136 15.8009 35.7114C16.4545 36.108 17.1885 36.3118 17.9343 36.3118C18.2666 36.3118 18.6015 36.2715 18.9323 36.1897C20.0055 35.9247 20.9128 35.2575 21.4858 34.3124C22.0583 33.3722 22.2292 32.2631 21.9671 31.1899C21.704 30.1137 21.0374 29.2049 20.0897 28.6309ZM20.2083 33.5361C19.8411 34.142 19.2606 34.5695 18.5741 34.7389C17.888 34.9078 17.179 34.8001 16.5771 34.4344C15.9722 34.0667 15.5463 33.4858 15.3778 32.7992C15.2094 32.1131 15.3191 31.4036 15.6873 30.7988C16.052 30.1954 16.6309 29.7704 17.3165 29.602C17.5268 29.5502 17.7395 29.5248 17.9503 29.5248C18.4271 29.5248 18.8954 29.6548 19.313 29.9084L19.314 29.9089C19.9198 30.2756 20.3458 30.8566 20.5142 31.5446C20.6821 32.2297 20.574 32.9362 20.2083 33.5361Z" fill="#231F20"/>
<path d="M15.9697 23.104C16.5422 22.1608 16.7126 21.0502 16.4496 19.977C16.186 18.9028 15.5198 17.995 14.5727 17.422C13.6265 16.8475 12.5139 16.6766 11.4402 16.9407C10.367 17.2048 9.46122 17.8714 8.89074 18.8171C7.70941 20.7632 8.3342 23.3122 10.2843 24.501C10.9385 24.8981 11.6729 25.1019 12.4198 25.1019C12.7516 25.1019 13.0854 25.0615 13.4158 24.9803C14.49 24.7163 15.3968 24.0496 15.9697 23.104ZM14.6918 22.3292C14.3251 22.9341 13.7451 23.36 13.0585 23.529C12.3729 23.6979 11.663 23.5892 11.0611 23.224C9.81448 22.4647 9.41389 20.8355 10.1692 19.5914C10.5339 18.987 11.1124 18.561 11.797 18.3926C12.0072 18.3408 12.22 18.3154 12.4312 18.3154C12.9086 18.3154 13.3779 18.4459 13.7969 18.7L13.7979 18.7005C14.4033 19.0667 14.8293 19.6467 14.9977 20.3332C15.1661 21.0183 15.0575 21.7268 14.6918 22.3292Z" fill="#231F20"/>
</svg>
