<svg width="50" height="50" viewBox="0 0 50 50" fill="none" xmlns="http://www.w3.org/2000/svg">
<path d="M6.5169 23.3172C6.72516 23.3172 6.93243 23.2305 7.07991 23.0616C7.35145 22.7507 7.31956 22.2783 7.00866 22.0068L1.55691 17.2466C1.246 16.975 0.774169 17.0074 0.502129 17.3178C0.230588 17.6287 0.262475 18.1011 0.573378 18.3726L6.02513 23.1328C6.16713 23.2564 6.34202 23.3172 6.5169 23.3172Z" fill="black"/>
<path d="M11.5516 18.5759C11.6801 18.8435 11.9472 18.9994 12.2257 18.9994C12.3343 18.9994 12.4449 18.9755 12.5491 18.9252C12.9213 18.7463 13.0777 18.2999 12.8983 17.9277L9.76042 11.4057C9.58205 11.034 9.13413 10.8781 8.76294 11.0565C8.39076 11.2353 8.23431 11.6818 8.41368 12.0539L11.5516 18.5759Z" fill="black"/>
<path d="M49.4096 43.5198V13.5416C49.4096 13.5326 49.4066 13.5242 49.4066 13.5152C49.4051 13.4768 49.4001 13.439 49.3931 13.4011C49.3901 13.3847 49.3876 13.3682 49.3837 13.3518C49.3732 13.3119 49.3577 13.2731 49.3403 13.2342C49.3353 13.2237 49.3338 13.2123 49.3284 13.2018C49.3269 13.1988 49.3229 13.1913 49.3209 13.1879L49.3204 13.1869C49.3204 13.1869 49.3189 13.1839 49.3184 13.1829C49.0658 12.6956 44.9902 5.19507 34.0916 5.19507C22.4642 5.19507 18.9601 12.9138 18.8171 13.2427C18.7757 13.3368 18.7548 13.439 18.7548 13.5416V18.4368C11.4894 19.2863 6.29675 26.7639 6.06656 27.1007C5.89318 27.3548 5.89318 27.6897 6.06656 27.9433C6.29675 28.2801 11.4894 35.7577 18.7548 36.6072V43.88C18.7548 44.2926 19.0891 44.6274 19.5021 44.6274H48.7599C49.1724 44.6274 49.5072 44.2926 49.5072 43.88C49.5062 43.749 49.4694 43.6274 49.4096 43.5198ZM45.3564 11.4515C46.6513 11.8242 47.6269 13.2755 47.9148 13.7459V42.7809L38.7437 39.1452V18.9191C38.8349 18.4049 39.7377 13.8749 43.6235 11.6921C44.2094 11.3628 44.7769 11.2841 45.3564 11.4515ZM7.61012 27.5228C8.8318 25.9189 13.5282 20.2833 19.4184 19.8757C19.4458 19.8787 19.4727 19.8842 19.5011 19.8842C19.5599 19.8842 19.6167 19.8757 19.6715 19.8628C19.8101 19.8568 19.9486 19.8503 20.0881 19.8503C25.6584 19.8508 30.3867 25.8801 31.571 27.5228C30.3867 29.1655 25.6584 35.1947 20.0881 35.1947C13.8865 35.1947 8.87764 29.1864 7.61012 27.5228ZM20.2485 36.6834C27.3993 36.5603 32.8774 28.2856 33.1086 27.9303C33.27 27.6822 33.27 27.3618 33.1086 27.1137C32.8774 26.7594 27.3993 18.4847 20.2485 18.3611V13.7095C20.7502 12.7011 24.1597 6.68979 34.0911 6.68979C38.8593 6.68979 42.1925 8.23434 44.3993 9.89299C43.8915 9.94729 43.3873 10.1107 42.8916 10.3892C38.1359 13.0598 37.2903 18.5185 37.2565 18.7497C37.251 18.7856 37.2485 18.8215 37.2485 18.8573V39.6519C37.2485 39.9584 37.4353 40.2339 37.7203 40.347L44.7485 43.1331H20.2485V36.6834Z" fill="black"/>
<path d="M40.93 25.7629C40.5174 25.7629 40.1826 26.0978 40.1826 26.5103V28.6891C40.1826 29.1017 40.5174 29.4365 40.93 29.4365C41.3425 29.4365 41.6773 29.1017 41.6773 28.6891V26.5103C41.6773 26.0978 41.343 25.7629 40.93 25.7629Z" fill="black"/>
<path d="M24.7943 27.5232C24.7943 24.5188 22.4561 22.075 19.5822 22.075C16.7084 22.075 14.3701 24.5188 14.3701 27.5232C14.3701 30.5276 16.7084 32.972 19.5822 32.972C22.4561 32.9715 24.7943 30.5276 24.7943 27.5232ZM19.5822 31.4768C17.5325 31.4768 15.8648 29.703 15.8648 27.5227C15.8648 25.3429 17.5325 23.5692 19.5822 23.5692C21.632 23.5692 23.2996 25.3429 23.2996 27.5227C23.2996 29.703 21.632 31.4768 19.5822 31.4768Z" fill="black"/>
</svg>
