<svg width="50" height="50" viewBox="0 0 50 50" fill="none" xmlns="http://www.w3.org/2000/svg">
<path d="M42.3269 13.8614H37.8269C37.8174 13.8293 37.8059 13.7979 37.7922 13.7673L35.4902 9.31189C35.4273 9.19044 35.3321 9.08873 35.215 9.01797C35.098 8.94721 34.9636 8.91016 34.8269 8.9109H24.5793C24.4434 8.91107 24.3101 8.94855 24.194 9.01926C24.0779 9.08997 23.9834 9.19119 23.9209 9.31189L21.6189 13.7673C21.6053 13.7979 21.5937 13.8293 21.5843 13.8614H7.67339C6.82037 13.8627 6.00267 14.2021 5.39949 14.8053C4.79632 15.4085 4.45688 16.2262 4.45557 17.0792V36.8812C4.45688 37.7342 4.79632 38.5519 5.39949 39.1551C6.00267 39.7583 6.82037 40.0977 7.67339 40.099H42.3269C43.1799 40.0977 43.9976 39.7583 44.6007 39.1551C45.2039 38.5519 45.5434 37.7342 45.5447 36.8812V17.0792C45.5434 16.2262 45.2039 15.4085 44.6007 14.8053C43.9976 14.2021 43.1799 13.8627 42.3269 13.8614ZM25.0298 10.396H34.3764L36.1635 13.8614H23.2427L25.0298 10.396ZM5.94071 36.8812V17.0792C5.94071 16.6197 6.12326 16.179 6.4482 15.854C6.77314 15.5291 7.21385 15.3465 7.67339 15.3465H13.3665V38.6139H7.67339C7.21385 38.6139 6.77314 38.4313 6.4482 38.1064C6.12326 37.7814 5.94071 37.3407 5.94071 36.8812ZM44.0595 36.8812C44.0595 37.3407 43.877 37.7814 43.552 38.1064C43.2271 38.4313 42.7864 38.6139 42.3269 38.6139H14.8516V15.3465H42.3269C42.7864 15.3465 43.2271 15.5291 43.552 15.854C43.877 16.179 44.0595 16.6197 44.0595 17.0792V36.8812Z" fill="black"/>
<path d="M29.7031 17.8218C27.8427 17.8218 26.0242 18.3734 24.4774 19.407C22.9306 20.4405 21.725 21.9095 21.0131 23.6282C20.3012 25.3469 20.1149 27.2382 20.4779 29.0627C20.8408 30.8873 21.7366 32.5633 23.0521 33.8787C24.3675 35.1942 26.0435 36.09 27.8681 36.4529C29.6926 36.8159 31.5839 36.6296 33.3026 35.9177C35.0213 35.2058 36.4903 34.0002 37.5238 32.4534C38.5574 30.9066 39.109 29.088 39.109 27.2277C39.109 24.7331 38.118 22.3407 36.3541 20.5767C34.5901 18.8128 32.1977 17.8218 29.7031 17.8218ZM29.7031 35.1485C28.1365 35.1485 26.6051 34.684 25.3025 33.8136C23.9999 32.9433 22.9847 31.7062 22.3852 30.2589C21.7857 28.8115 21.6288 27.2189 21.9345 25.6824C22.2401 24.146 22.9945 22.7346 24.1022 21.6269C25.21 20.5191 26.6213 19.7647 28.1578 19.4591C29.6943 19.1535 31.2869 19.3104 32.7342 19.9099C34.1816 20.5094 35.4186 21.5246 36.289 22.8272C37.1593 24.1297 37.6239 25.6611 37.6239 27.2277C37.6239 29.3284 36.7893 31.3431 35.3039 32.8286C33.8185 34.314 31.8038 35.1485 29.7031 35.1485Z" fill="black"/>
<path d="M29.7029 21.7822C28.6258 21.7822 27.573 22.1016 26.6775 22.7C25.782 23.2983 25.084 24.1488 24.6718 25.1439C24.2597 26.1389 24.1518 27.2338 24.362 28.2901C24.5721 29.3465 25.0907 30.3168 25.8523 31.0784C26.6139 31.8399 27.5842 32.3586 28.6405 32.5687C29.6968 32.7788 30.7917 32.671 31.7868 32.2588C32.7818 31.8466 33.6323 31.1487 34.2307 30.2532C34.829 29.3576 35.1484 28.3048 35.1484 27.2278C35.1484 25.7835 34.5747 24.3984 33.5535 23.3772C32.5322 22.356 31.1471 21.7822 29.7029 21.7822ZM29.7029 31.1882C28.9196 31.1882 28.1539 30.9559 27.5026 30.5207C26.8513 30.0855 26.3437 29.467 26.0439 28.7433C25.7442 28.0197 25.6658 27.2234 25.8186 26.4551C25.9714 25.6869 26.3486 24.9812 26.9024 24.4273C27.4563 23.8735 28.162 23.4963 28.9302 23.3435C29.6985 23.1907 30.4948 23.2691 31.2184 23.5688C31.9421 23.8686 32.5606 24.3762 32.9958 25.0275C33.431 25.6788 33.6633 26.4445 33.6633 27.2278C33.6633 28.2781 33.246 29.2855 32.5033 30.0282C31.7606 30.7709 30.7532 31.1882 29.7029 31.1882Z" fill="black"/>
<path d="M7.67324 11.386H12.1287C12.3256 11.386 12.5145 11.3078 12.6538 11.1685C12.793 11.0293 12.8713 10.8404 12.8713 10.6435C12.8713 10.4465 12.793 10.2576 12.6538 10.1184C12.5145 9.97911 12.3256 9.90088 12.1287 9.90088H7.67324C7.4763 9.90088 7.28742 9.97911 7.14816 10.1184C7.0089 10.2576 6.93066 10.4465 6.93066 10.6435C6.93066 10.8404 7.0089 11.0293 7.14816 11.1685C7.28742 11.3078 7.4763 11.386 7.67324 11.386Z" fill="black"/>
</svg>
