<svg width="16" height="17" viewBox="0 0 16 17" fill="none" xmlns="http://www.w3.org/2000/svg">
<path fill-rule="evenodd" clip-rule="evenodd" d="M15.84 7.39997C15.8206 7.30542 15.7827 7.21562 15.7286 7.13571C15.6744 7.05579 15.6051 6.98732 15.5245 6.93421C15.4439 6.88109 15.3536 6.84437 15.2588 6.82614C15.164 6.80792 15.0666 6.80854 14.972 6.82797C14.8775 6.84741 14.7877 6.88528 14.7077 6.93942C14.6278 6.99356 14.5594 7.06291 14.5062 7.14351C14.4531 7.22411 14.4164 7.31438 14.3982 7.40918C14.3799 7.50397 14.3806 7.60142 14.4 7.69597C14.6994 9.1638 14.4874 10.6899 13.7992 12.0205C13.111 13.3511 11.9882 14.4062 10.6173 15.0102C9.24639 15.6142 7.71007 15.7308 6.26372 15.3406C4.81738 14.9504 3.54815 14.0769 2.66704 12.8654C1.78593 11.6539 1.34602 10.1773 1.42045 8.68107C1.49488 7.18487 2.07916 5.75922 3.07616 4.64112C4.07316 3.52302 5.42281 2.77983 6.90073 2.53512C8.37866 2.2904 9.89583 2.5589 11.2 3.29597C11.2844 3.35128 11.3792 3.38865 11.4786 3.40578C11.578 3.42291 11.6798 3.41942 11.7778 3.39554C11.8758 3.37166 11.9678 3.32789 12.0482 3.26695C12.1286 3.20602 12.1956 3.12921 12.245 3.0413C12.2945 2.95339 12.3253 2.85626 12.3357 2.75593C12.346 2.6556 12.3356 2.55421 12.3051 2.45807C12.2747 2.36192 12.2248 2.27306 12.1585 2.19701C12.0922 2.12096 12.0111 2.05934 11.92 2.01597C10.3887 1.15519 8.61655 0.822392 6.87724 1.06894C5.13793 1.31548 3.52813 2.12767 2.29633 3.38012C1.06452 4.63258 0.279214 6.25566 0.0616193 7.99883C-0.155975 9.742 0.206244 11.5083 1.09236 13.0252C1.97848 14.542 3.33923 15.725 4.96456 16.3915C6.5899 17.0581 8.38943 17.1711 10.0854 16.7132C11.7814 16.2553 13.2794 15.2518 14.3484 13.8578C15.4174 12.4638 15.9978 10.7567 16 8.99997C15.9986 8.46272 15.945 7.92688 15.84 7.39997Z" fill="#FBF9F4"/>
<path fill-rule="evenodd" clip-rule="evenodd" d="M15.784 2.60004C15.7176 2.53133 15.638 2.47669 15.55 2.43937C15.4621 2.40205 15.3675 2.38281 15.272 2.38281C15.1764 2.38281 15.0818 2.40205 14.9939 2.43937C14.9059 2.47669 14.8264 2.53133 14.76 2.60004L7.99995 9.43204L5.59995 7.03204C5.53355 6.96333 5.454 6.90869 5.36604 6.87137C5.27808 6.83405 5.1835 6.81481 5.08795 6.81481C4.9924 6.81481 4.89783 6.83405 4.80986 6.87137C4.7219 6.90869 4.64235 6.96333 4.57595 7.03204C4.44197 7.17201 4.36719 7.35828 4.36719 7.55204C4.36719 7.74579 4.44197 7.93207 4.57595 8.07204L7.51995 10.992C7.58635 11.0608 7.6659 11.1154 7.75387 11.1527C7.84183 11.19 7.9364 11.2093 8.03195 11.2093C8.1275 11.2093 8.22208 11.19 8.31004 11.1527C8.398 11.1154 8.47755 11.0608 8.54395 10.992L15.784 3.63204C15.8527 3.56405 15.9072 3.48305 15.9443 3.39377C15.9813 3.30449 16.0003 3.20872 16 3.11204C15.9914 2.92105 15.9148 2.73941 15.784 2.60004Z" fill="#FBF9F4"/>
</svg>
