<svg width="47" height="48" viewBox="0 0 47 48" fill="none" xmlns="http://www.w3.org/2000/svg">
<path d="M21.9415 1.23101C22.4258 -0.187072 24.4315 -0.187072 24.9156 1.23101L29.9796 16.0602C30.1369 16.5206 30.4985 16.8822 30.9589 17.0394L45.788 22.1034C47.2062 22.5877 47.2062 24.5932 45.788 25.0775L30.9589 30.1415C30.4985 30.2987 30.1369 30.6603 29.9796 31.1207L24.9156 45.9499C24.4315 47.3679 22.4258 47.3679 21.9415 45.9499L16.8776 31.1207C16.7204 30.6603 16.3587 30.2987 15.8983 30.1415L1.06918 25.0775C-0.348906 24.5932 -0.348906 22.5877 1.06918 22.1034L15.8983 17.0394C16.3587 16.8822 16.7204 16.5206 16.8776 16.0602L21.9415 1.23101Z" fill="#FE570B"/>
</svg>
